<svg width="100" height="100" viewBox="0 0 100 100" fill="none" xmlns="http://www.w3.org/2000/svg">
<path d="M39.6 44.9H13.5001C10.4001 44.9 7.90009 42.4 7.90009 39.3V13.2001C7.90009 10.1001 10.4001 7.6001 13.5001 7.6001H39.6C42.7 7.6001 45.2 10.1001 45.2 13.2001V39.3C45.2 42.4 42.7 44.9 39.6 44.9Z" fill="#1F6CFF"/>
<path d="M87.4 44.9H61.3C58.2 44.9 55.7 42.4 55.7 39.3V13.2001C55.7 10.1001 58.2 7.6001 61.3 7.6001H87.4C90.5 7.6001 93 10.1001 93 13.2001V39.3C93 42.4 90.5 44.9 87.4 44.9Z" fill="#1F6CFF"/>
<path d="M39.7 93H13.5999C10.4999 93 7.99988 90.5 7.99988 87.4V61.2C7.99988 58.1 10.4999 55.6 13.5999 55.6H39.7C42.8 55.6 45.2998 58.1 45.2998 61.2V87.3C45.2998 90.5 42.8 93 39.7 93Z" fill="#1F6CFF"/>
<path d="M74.4997 93C64.1997 93 55.7997 84.6 55.7997 74.3C55.7997 64 64.1997 55.6 74.4997 55.6C84.7997 55.6 93.1997 64 93.1997 74.3C93.0997 84.6 84.7997 93 74.4997 93Z" fill="#FF9900"/>
</svg>
