<svg width="100" height="100" viewBox="0 0 100 100" fill="none" xmlns="http://www.w3.org/2000/svg">
<g clip-path="url(#clip0_2_92)">
<path d="M51.2667 92.7363C50.4667 93.4413 49.6667 94.0454 48.8667 94.6496C48.1667 95.2538 47.4667 95.7571 46.7667 96.3613C46.2667 96.7638 45.8667 96.9654 45.2667 96.6633C44.6667 96.3613 44.5667 95.9583 44.5667 95.3542C44.5667 91.9308 44.5667 88.6079 44.5667 85.1846C44.5667 84.7817 44.4667 84.4796 44.0667 84.2783C40.2667 81.8617 37.9667 78.5392 37.3667 74.0079C37.3667 73.8067 37.2667 73.605 37.2667 73.4038C37.0667 73.4038 36.8667 73.4038 36.6667 73.4038C32.9667 73.4038 29.2667 73.4038 25.5667 73.4038C24.0667 73.4038 22.5667 73.3029 21.0667 73.3029C16.0667 73.3029 11.0667 73.3029 6.06667 73.4038C4.56667 73.4038 4.16667 73.1017 4.16667 71.5913C4.16667 51.4533 4.16667 31.3153 4.16667 11.1773C4.16667 10.2711 4.66667 9.76763 5.56667 9.76763C7.06667 9.76763 8.56667 9.76763 10.1667 9.76763C10.1667 8.55938 10.1667 7.45175 10.1667 6.34417C10.1667 5.94142 10.1667 5.43796 10.1667 5.03521C10.1667 4.33037 10.6667 3.92761 11.2667 3.92761C12.2667 3.92761 13.2667 3.92761 14.2667 3.92761C16.6667 3.92761 19.1667 3.92761 21.5667 3.92761C48.1667 3.92761 74.6667 3.92761 101.267 3.92761C101.767 3.92761 102.367 3.92761 102.867 3.92761C103.667 3.92761 104.167 4.43108 104.167 5.23658C104.167 5.63933 104.167 5.94142 104.167 6.34417C104.167 26.0795 104.167 45.7142 104.167 65.4492C104.167 67.3625 103.767 67.6646 102.067 67.5638C100.867 67.5638 99.5667 67.5638 98.2667 67.5638C98.2667 68.0671 98.2667 68.5708 98.2667 68.9733C98.2667 70.0808 98.2667 71.0879 98.2667 72.1954C98.2667 73.0008 97.8667 73.5046 96.9667 73.5046C96.5667 73.5046 96.1667 73.5046 95.8667 73.5046C85.8667 73.5046 75.7667 73.5046 65.7667 73.5046C65.5667 73.5046 65.3667 73.5046 65.1667 73.5046C65.0667 74.2092 64.9667 74.9142 64.7667 75.5183C63.7667 79.3446 61.6667 82.3654 58.2667 84.3792C57.9667 84.5804 57.8667 84.7817 57.8667 85.1846C57.8667 88.6079 57.8667 92.0313 57.8667 95.3542C57.8667 95.9583 57.7667 96.4617 57.1667 96.7638C56.5667 97.0658 56.1667 96.8646 55.6667 96.4617C54.2667 95.1529 52.7667 93.9446 51.2667 92.7363ZM84.9667 12.2849C62.4667 12.2849 39.9667 12.2849 17.3667 12.2849C17.2667 12.587 17.2667 12.889 17.1667 13.0904C16.3667 18.1249 12.1667 22.2532 7.16667 22.958C6.66667 23.0588 6.56667 23.2601 6.56667 23.6629C6.56667 35.645 6.56667 47.5263 6.56667 59.5088C6.56667 59.71 6.56667 59.9113 6.56667 60.1125C11.9667 60.7167 16.5667 64.845 17.3667 70.9871C23.9667 70.9871 30.5667 70.9871 37.2667 70.9871C38.0667 63.2342 44.5667 58.0988 51.0667 58.0988C54.3667 58.0988 57.3667 59.1058 59.8667 61.1196C62.9667 63.6367 64.6667 66.9596 65.1667 70.8867C71.8667 70.8867 78.4667 70.8867 85.0667 70.8867C86.1667 64.7446 89.7667 61.1196 95.8667 60.0121C95.8667 59.8104 95.8667 59.71 95.8667 59.5088C95.8667 47.5263 95.8667 35.4436 95.8667 23.4615C95.8667 23.0588 95.6667 22.958 95.3667 22.958C91.0667 22.2532 87.9667 19.9373 86.1667 16.0104C85.5667 14.9028 85.3667 13.5939 84.9667 12.2849ZM101.767 6.34417C100.667 6.34417 99.6667 6.34417 98.6667 6.34417C88.5667 6.34417 78.5667 6.34417 68.4667 6.34417C50.2667 6.34417 32.0667 6.34417 13.8667 6.34417C13.5667 6.34417 13.1667 6.34417 12.8667 6.34417C12.7667 6.34417 12.5667 6.54554 12.5667 6.64625C12.5667 7.65317 12.5667 8.76075 12.5667 9.86833C12.8667 9.86833 13.0667 9.86833 13.3667 9.86833C40.6667 9.86833 67.9667 9.86833 95.2667 9.86833C95.6667 9.86833 96.1667 9.969 96.5667 9.86833C97.5667 9.66696 98.3667 10.3718 98.3667 11.4794C98.3667 29.1001 98.3667 46.7208 98.3667 64.3417C98.3667 64.5429 98.3667 64.7446 98.3667 65.0467C99.5667 65.0467 100.667 65.0467 101.867 65.0467C101.767 45.5125 101.767 25.878 101.767 6.34417ZM51.2667 83.8754C57.7667 83.8754 62.8667 78.6396 62.8667 71.9942C62.8667 65.7513 57.5667 60.5154 51.2667 60.5154C44.7667 60.5154 39.6667 65.7513 39.6667 72.3971C39.6667 78.6396 44.9667 83.8754 51.2667 83.8754ZM87.5667 12.2849C87.7667 16.2118 91.5667 20.3401 95.7667 20.5415C95.7667 17.8228 95.7667 15.0035 95.7667 12.2849C93.0667 12.2849 90.2667 12.2849 87.5667 12.2849ZM87.5667 70.9871C90.2667 70.9871 93.0667 70.9871 95.8667 70.9871C95.8667 68.1679 95.8667 65.4492 95.8667 62.7308C91.8667 62.9321 87.8667 66.7583 87.5667 70.9871ZM6.66667 20.5415C10.3667 20.5415 15.2667 15.7084 14.8667 12.2849C12.1667 12.2849 9.36667 12.2849 6.66667 12.2849C6.66667 15.1042 6.66667 17.8228 6.66667 20.5415ZM6.56667 70.9871C9.36667 70.9871 12.0667 70.9871 14.8667 70.9871C14.5667 66.8588 10.7667 63.0325 6.56667 62.7308C6.56667 65.4492 6.56667 68.1679 6.56667 70.9871ZM46.9667 93.0383C48.1667 92.1321 49.2667 91.2258 50.2667 90.3196C50.8667 89.8163 51.3667 89.8163 51.9667 90.3196C52.3667 90.6217 52.7667 91.0246 53.1667 91.3267C53.8667 91.9308 54.5667 92.4342 55.2667 93.0383C55.2667 90.5213 55.2667 88.1046 55.2667 85.6879C52.4667 86.5942 49.6667 86.5942 46.8667 85.6879C46.9667 88.1046 46.9667 90.5213 46.9667 93.0383ZM77.2667 34.7388C79.1667 34.7388 81.0667 34.7388 82.8667 34.7388C83.3667 34.7388 83.7667 34.5374 84.0667 34.034C84.2667 33.6312 84.2667 33.1278 83.9667 32.725C83.6667 32.4229 83.1667 32.2215 82.7667 32.2215C77.8667 32.2215 72.9667 32.2215 68.0667 32.2215C53.8667 32.2215 39.5667 32.2215 25.3667 32.2215C23.4667 32.2215 21.4667 32.2215 19.5667 32.2215C18.9667 32.2215 18.5667 32.5236 18.3667 33.027C18.1667 33.5305 18.3667 34.034 18.7667 34.336C19.0667 34.5374 19.4667 34.5374 19.7667 34.5374C30.2667 34.5374 40.6667 34.5374 51.1667 34.5374C59.8667 34.7388 68.5667 34.7388 77.2667 34.7388ZM51.2667 40.7802C40.8667 40.7802 30.4667 40.7802 19.9667 40.7802C19.7667 40.7802 19.5667 40.7802 19.3667 40.7802C18.5667 40.8809 18.0667 41.6863 18.3667 42.4921C18.6667 43.0963 19.1667 43.1967 19.7667 43.1967C33.3667 43.1967 46.9667 43.1967 60.5667 43.1967C67.8667 43.1967 75.2667 43.1967 82.5667 43.1967C82.7667 43.1967 82.8667 43.1967 83.0667 43.1967C83.5667 43.0963 83.9667 42.7942 84.0667 42.2904C84.3667 41.3843 83.6667 40.7802 82.6667 40.7802C75.6667 40.7802 68.7667 40.7802 61.7667 40.7802C58.2667 40.8809 54.7667 40.8809 51.2667 40.7802C51.2667 40.8809 51.2667 40.7802 51.2667 40.7802ZM31.4667 49.3388C27.4667 49.3388 23.5667 49.3388 19.5667 49.3388C18.7667 49.3388 18.2667 49.8425 18.2667 50.5471C18.2667 51.2521 18.7667 51.7554 19.4667 51.7554C19.6667 51.7554 19.7667 51.7554 19.9667 51.7554C39.0667 51.7554 58.0667 51.7554 77.1667 51.7554C78.9667 51.7554 80.8667 51.7554 82.6667 51.7554C83.1667 51.7554 83.5667 51.6546 83.8667 51.1513C84.0667 50.7483 84.1667 50.3458 83.8667 49.9429C83.5667 49.4396 83.1667 49.3388 82.6667 49.3388C72.1667 49.3388 61.6667 49.3388 51.1667 49.3388C44.6667 49.3388 38.0667 49.3388 31.4667 49.3388ZM65.5667 24.5691C65.9667 24.5691 66.3667 24.3677 66.7667 24.1663C67.1667 23.8643 67.1667 23.3608 66.9667 22.8574C66.6667 22.2532 66.1667 22.1525 65.6667 22.1525C56.0667 22.1525 46.4667 22.1525 36.9667 22.1525C36.7667 22.1525 36.5667 22.1525 36.3667 22.1525C35.7667 22.2532 35.3667 22.7567 35.4667 23.3608C35.4667 23.965 35.9667 24.4684 36.5667 24.4684C36.8667 24.4684 37.1667 24.4684 37.3667 24.4684C41.9667 24.4684 46.5667 24.4684 51.2667 24.4684C55.9667 24.6698 60.7667 24.6698 65.5667 24.5691ZM42.6667 72.1954C42.6667 67.4629 46.4667 63.5363 51.1667 63.5363C55.9667 63.5363 59.8667 67.3625 59.8667 71.9942C59.8667 76.8271 56.0667 80.7542 51.3667 80.7542C46.4667 80.9554 42.6667 77.0288 42.6667 72.1954ZM57.3667 72.3971C57.4667 69.0742 54.8667 66.1542 51.5667 66.0533C48.1667 65.8521 45.1667 68.47 45.0667 71.8933C44.9667 75.4175 47.5667 78.3375 51.0667 78.4383C54.3667 78.6396 57.2667 75.8204 57.3667 72.3971Z" fill="#1F6CFF"/>
</g>
<defs>
<clipPath id="clip0_2_92">
<rect width="100" height="100" fill="white"/>
</clipPath>
</defs>
</svg>
