<svg width="101" height="100" viewBox="0 0 101 100" fill="none" xmlns="http://www.w3.org/2000/svg">
<path d="M0 50C0 42.3733 0 34.7466 0 27.1199C0 25.414 0.60813 24.4104 2.12845 23.6076C17.7371 15.9809 33.2444 8.25387 48.7514 0.526845C50.0691 -0.175615 51.1843 -0.175615 52.5019 0.526845C68.0092 8.25387 83.6175 15.9809 99.1248 23.6076C100.645 24.4104 101.253 25.414 101.253 27.1199C101.253 42.3733 101.253 57.6267 101.253 72.88C101.253 74.6863 100.645 75.69 99.0238 76.4929C83.6175 84.1196 68.1102 91.7463 52.6029 99.4733C51.2857 100.175 50.1705 100.175 48.8529 99.4733C33.143 91.7463 17.5344 84.0192 1.92574 76.2921C0.608129 75.5896 0 74.6863 0 73.2817C0 65.4542 0 57.7271 0 50ZM4.76366 29.8294C4.76366 30.1305 4.66233 30.3312 4.66233 30.4315C4.66233 44.1796 4.66233 58.0279 4.66233 71.7763C4.66233 72.4788 4.96638 72.6796 5.47315 72.9804C19.4601 79.9046 33.3457 86.7288 47.3328 93.6529C47.6366 93.7533 47.9409 93.9538 48.3462 94.1546C48.3462 93.6529 48.3462 93.3517 48.3462 93.1508C48.3462 79.6038 48.3462 66.0563 48.3462 52.5088C48.3462 51.8063 48.1433 51.405 47.5352 51.1038C33.5484 44.0792 19.6628 37.155 5.67586 30.3312C5.37181 30.1305 5.1691 30.0301 4.76366 29.8294ZM53.0086 94.0542C53.5153 93.8533 53.8195 93.7533 54.1234 93.5525C68.0092 86.7288 81.8946 79.8042 95.7804 72.9804C96.4895 72.5792 96.6923 72.1775 96.6923 71.475C96.6923 58.0279 96.6923 44.4808 96.6923 31.0336C96.6923 30.7326 96.6923 30.3312 96.5909 29.9298C96.1857 30.1305 95.9828 30.1305 95.679 30.3312C92.8409 31.7361 90.0032 33.141 87.0637 34.5459C86.4556 34.847 86.1517 35.2484 86.1517 35.9508C86.1517 41.5705 86.1517 47.2904 86.1517 52.91C86.1517 54.7167 86.1517 56.6233 86.1517 58.4296C86.1517 59.4329 85.746 60.1354 84.9351 60.6371C84.0232 61.1392 83.2122 60.9383 82.4013 60.3363C81.7932 59.9346 81.1851 59.4329 80.577 59.0317C79.2593 58.0279 77.8403 57.125 76.4216 56.1213C75.9145 56.8238 75.5093 57.4258 75.104 57.9279C72.5702 61.5404 70.0359 65.1529 67.5021 68.7658C66.5901 70.0704 65.2725 70.3713 64.1577 69.5683C63.3468 68.9663 63.1439 68.1638 63.1439 67.2604C63.1439 60.7375 63.1439 54.1146 63.1439 47.5917C63.1439 47.19 63.1439 46.8892 63.0425 46.3875C59.9006 47.9929 56.8601 49.4983 53.7181 50.9033C52.9072 51.3046 52.7043 51.8063 52.7043 52.6092C52.7043 66.0563 52.7043 79.4029 52.7043 92.85C53.0086 93.1508 53.0086 93.5525 53.0086 94.0542ZM23.1089 18.3894C23.4129 18.5901 23.5143 18.6904 23.6157 18.6904C37.6026 25.6147 51.5895 32.5389 65.4753 39.3628C65.8806 39.5635 66.4887 39.4631 66.793 39.3628C70.7454 37.4561 74.5969 35.5494 78.5498 33.5424C78.7526 33.442 78.9555 33.3417 79.2593 33.141C79.0565 33.0406 78.8541 32.9403 78.7526 32.84C64.8668 26.016 50.88 19.0918 36.8931 12.1676C36.4877 11.9669 35.8796 12.0672 35.5755 12.1676C31.724 14.0742 27.7712 15.9809 23.9197 17.8876C23.717 18.0883 23.5143 18.1887 23.1089 18.3894ZM7.6016 26.016C7.90565 26.2168 8.00703 26.3171 8.10836 26.3171C22.0953 33.2413 36.0823 40.1656 50.0691 47.09C50.3733 47.2904 50.9814 47.19 51.2857 46.9896C54.2248 45.5846 57.1639 44.0792 60.1034 42.6742C60.3063 42.5742 60.6101 42.3733 60.9144 42.1725C60.4073 41.9721 60.1034 41.7713 59.7991 41.5705C56.5558 39.9649 53.4138 38.3593 50.1705 36.854C39.6297 31.6358 29.1902 26.4175 18.6493 21.2995C18.3452 21.0988 17.7371 20.9985 17.5344 21.0988C14.1897 22.7045 10.9463 24.3101 7.6016 26.016ZM93.8547 26.1164C93.2466 25.8154 92.8409 25.6147 92.4356 25.3136C79.8674 19.1922 67.5021 12.9704 55.0357 6.84896C53.6167 6.1465 52.1976 4.94229 50.7786 4.94229C49.36 4.94229 47.8395 6.1465 46.4204 6.84896C44.799 7.65179 43.1771 8.45458 41.5554 9.25742C41.6568 9.35775 41.7582 9.45808 41.7582 9.45808C55.8463 16.4827 69.9349 23.4069 84.0232 30.3312C84.327 30.4315 84.7327 30.5319 84.9351 30.4315C87.8746 29.0266 90.7123 27.6217 93.8547 26.1164ZM67.9078 60.2358C68.313 59.7342 68.5159 59.4329 68.7187 59.1321C70.4416 56.7233 72.0631 54.315 73.7864 51.9067C75.0026 50.2008 76.1174 50 77.8403 51.2042C79.0569 52.1075 80.3741 52.91 81.6917 53.9138C81.6917 48.1938 81.6917 42.6742 81.6917 37.2554C81.5907 37.2554 81.5907 37.2554 81.4893 37.2554C77.1307 39.3628 72.7726 41.5705 68.4145 43.6779C68.2116 43.7783 67.9078 44.1796 67.9078 44.4808C67.9078 49.6988 67.9078 54.8167 67.9078 60.2358Z" fill="#1F6CFF"/>
</svg>
