<?xml version="1.0" encoding="utf-8"?>
<!-- Generator: Adobe Illustrator 25.3.1, SVG Export Plug-In . SVG Version: 6.00 Build 0)  -->
<svg version="1.1" id="Layer_1" xmlns="http://www.w3.org/2000/svg" xmlns:xlink="http://www.w3.org/1999/xlink" x="0px" y="0px"
	 viewBox="0 0 102.7 102.7" style="enable-background:new 0 0 102.7 102.7;" xml:space="preserve">
<style type="text/css">
	.st0{fill:url(#SVGID_1_);}
	.st1{fill:#FFFFFF;}
</style>
<g>
	<linearGradient id="SVGID_1_" gradientUnits="userSpaceOnUse" x1="15.0345" y1="87.6276" x2="87.6276" y2="15.0345">
		<stop  offset="0" style="stop-color:#FF2A93"/>
		<stop  offset="1" style="stop-color:#1089DB"/>
	</linearGradient>
	<circle class="st0" cx="51.3" cy="51.3" r="51.3"/>
	<g>
		<path class="st1" d="M21.3,30.7h15.4l7.3-2.6c2.8-1,5.9-0.7,8.5,0.8l20.5,12.4c0.1,0.1,0.2,0.1,0.2,0.2c1.3,1.5,1.4,3.8,0.2,5.4
			c-0.8,1.1-2.1,1.7-3.4,1.7c-0.3,0-0.7,0-1-0.1c0,1.8-0.7,3.6-1.8,5h12.2c1.7,0,3.1,1.4,3.1,3.1v17.6c0,0.6-0.5,1-1,1H37.9
			c-0.6,0-1-0.5-1-1V56.6c0-1.7,1.4-3.1,3.1-3.1h14.3c-0.9-1.2-1.5-2.6-1.7-4L49,50.2c-0.2,0-0.4,0.1-0.7,0.1c-0.3,0-0.7-0.1-1-0.2
			l-8.4-2.8l-3.3-1.1h-5v3.1c0,0.6-0.5,1-1,1h-8.3c-0.6,0-1-0.5-1-1V31.7c0-0.3,0.1-0.5,0.3-0.7C20.7,30.8,21,30.7,21.3,30.7
			L21.3,30.7z M38.9,73.2h41.5v-9.3H38.9V73.2z M47.2,57.6v-2.1h-7.3c-0.6,0-1,0.5-1,1v5.2h41.5v-5.2c0-0.6-0.5-1-1-1h-7.3v2.1
			c0,1.1-0.9,2.1-2.1,2.1H49.3C48.1,59.7,47.2,58.8,47.2,57.6L47.2,57.6z M49.3,55.5v2.1H70v-2.1h-5.3c-2.5,1.4-5.5,1.4-8,0
			c0,0,0,0,0,0H49.3z M57,46.9c-0.6,1-1.4,1.7-2.5,2c0.1,1.1,0.5,2.1,1.1,2.9l1.4-1.4c0,0,0,0,0.1,0c-0.3-0.9,0-1.9,0.7-2.6
			c0.7-0.7,1.7-0.9,2.6-0.6l1,0.3c0.2,0.1,0.3,0,0.5,0c0.2-0.1,0.3-0.4,0.3-0.6c-0.1-0.2-0.3-0.4-0.5-0.4h-1c-0.6,0-1-0.5-1-1
			s0.5-1,1-1h1c0.4,0,0.8,0.1,1.2,0.3l1.5-1.5c-2.1-1.5-4.9-1.5-7-0.1c0,0.1,0.1,0.2,0.1,0.2C57.7,44.6,57.6,45.9,57,46.9L57,46.9z
			 M64.1,46.3c0.3,0.9,0,1.9-0.7,2.6c-0.7,0.7-1.7,0.9-2.6,0.6l-1-0.3c-0.2,0-0.3,0-0.5,0c-0.2,0.1-0.3,0.4-0.3,0.6
			c0.1,0.2,0.3,0.4,0.5,0.4h1c0.6,0,1,0.5,1,1c0,0.6-0.5,1-1,1h-1c-0.4,0-0.8-0.1-1.2-0.3l-1.3,1.3c2.5,1.8,5.9,1.5,8-0.7
			c2.1-2.1,2.4-5.5,0.7-8L64.1,46.3z M30.6,44.1h5.2c0.1,0,0.2,0,0.3,0.1l3.1,1l0.7,0.2l0.2,0.1l7.9,2.6c0.2,0.1,0.4,0.1,0.6,0
			l5.1-1.1c0.6-0.1,1.2-0.6,1.5-1.1c0.3-0.6,0.4-1.3,0.2-1.9c-0.4-1.1-1.4-1.7-2.5-1.6l-4.5,0.6c-0.2,0-0.4,0-0.6-0.1l-2.1-1
			c-0.5-0.3-0.7-0.9-0.5-1.4c0.3-0.5,0.9-0.7,1.4-0.5l1.8,0.9l4.1-0.6c1.3-0.2,2.5,0.2,3.5,1c3.3-2.2,7.7-1.8,10.5,1c0,0,0,0,0,0
			c0,0,0,0,0,0c1,1,1.8,2.3,2.1,3.7l0.4,0.2c0.9,0.4,2,0.1,2.6-0.7c0.6-0.8,0.6-1.9,0-2.7L51.3,30.6c-2-1.2-4.5-1.5-6.7-0.7
			l-7.4,2.7c-0.1,0-0.2,0.1-0.4,0.1h-6.2V44.1z M22.3,48.3h6.2V32.7h-6.2V48.3z M24.4,46.2h2.1v-2.1h-2.1V46.2z M24.4,46.2"/>
	</g>
</g>
</svg>
