<?xml version="1.0" encoding="utf-8"?>
<!-- Generator: Adobe Illustrator 25.3.1, SVG Export Plug-In . SVG Version: 6.00 Build 0)  -->
<svg version="1.1" id="Layer_1" xmlns="http://www.w3.org/2000/svg" xmlns:xlink="http://www.w3.org/1999/xlink" x="0px" y="0px"
	 viewBox="0 0 102.7 102.7" style="enable-background:new 0 0 102.7 102.7;" xml:space="preserve">
<style type="text/css">
	.st0{fill:url(#SVGID_1_);}
	.st1{fill:#FFFFFF;}
</style>
<g>
	<linearGradient id="SVGID_1_" gradientUnits="userSpaceOnUse" x1="15.0345" y1="87.6276" x2="87.6276" y2="15.0345">
		<stop  offset="0" style="stop-color:#FF2A93"/>
		<stop  offset="1" style="stop-color:#1089DB"/>
	</linearGradient>
	<circle class="st0" cx="51.3" cy="51.3" r="51.3"/>
	<g>
		<path class="st1" d="M79.1,51.4H67l-2.8,1.2c1.9,3,3.1,6.3,3.7,9.8l1.1,6.2c0.7,3.4-0.2,7-2.4,9.6c-2.1,2.6-5.3,4.2-8.6,4.2H39.7
			c-3.4,0-6.5-1.5-8.6-4.2c-2.2-2.7-3.1-6.2-2.4-9.6l0.9-4.9c0.9-5.1,3.3-9.9,6.8-13.8c-0.9-1.2-0.9-2.9,0.1-4c-1.1-1.2-1.1-3,0-4.1
			c-1.1-1.2-1.1-3,0-4.1c-0.8-0.9-1-2.2-0.5-3.3c0.5-1.1,1.6-1.8,2.8-1.8h2.4c-0.2-0.9-0.6-1.8-1-2.6l-1.6-3.1
			c-0.4-0.7-0.3-1.6,0.3-2.2c0.5-0.6,1.4-0.9,2.2-0.7l4,1.1c0.3,0.1,0.6,0,0.9-0.2l2.7-2c0.7-0.5,1.7-0.5,2.5,0l2.6,2
			c0.3,0.2,0.6,0.3,0.9,0.2l3.1-1c0.8-0.3,1.6,0,2.1,0.5c0.6,0.6,0.7,1.4,0.4,2.2L59,30.4c-0.2,0.5-0.3,1-0.5,1.5
			c0.8,0.4,1.4,1.1,1.7,1.9l6.7,3.1h12.2c0.6,0,1,0.5,1,1v12.4C80.2,50.9,79.7,51.4,79.1,51.4L79.1,51.4z M38.8,34.6
			c-0.6,0-1,0.5-1,1c0,0.6,0.5,1,1,1H43c0.6,0,1-0.5,1-1c0-0.6-0.5-1-1-1H38.8z M38.8,44.9H43c0.6,0,1-0.5,1-1c0-0.6-0.5-1-1-1h-4.1
			c-0.6,0-1,0.5-1,1C37.8,44.5,38.2,44.9,38.8,44.9L38.8,44.9z M37.8,48c0,0.6,0.5,1,1,1H43c0.6,0,1-0.5,1-1c0-0.6-0.5-1-1-1h-4.1
			C38.2,47,37.8,47.5,37.8,48L37.8,48z M38.8,40.8H43c0.6,0,1-0.5,1-1c0-0.6-0.5-1-1-1h-4.1c-0.6,0-1,0.5-1,1
			C37.8,40.3,38.2,40.8,38.8,40.8L38.8,40.8z M55.4,27c-1,0.3-2,0.1-2.8-0.5l-2.7-2l-2.7,2c-0.8,0.6-1.8,0.8-2.7,0.5l-4-1.1l1.6,3.1
			c0.6,1.1,1,2.3,1.3,3.6c1.1,0.1,2.1,0.9,2.5,2c0.4,1.1,0.2,2.3-0.6,3.2c1.1,1.2,1.1,3,0,4.1c1.1,1.2,1.1,3,0,4.1
			c0.8,0.9,1,2.2,0.5,3.3c-0.5,1.1-1.6,1.8-2.8,1.8h-4.1c-0.2,0-0.5,0-0.7-0.1c-3.4,3.6-5.6,8.2-6.5,13L30.7,69
			c-0.6,2.8,0.1,5.7,2,7.9c1.7,2.1,4.3,3.4,7,3.4H58c2.7,0,5.3-1.3,7-3.4c1.8-2.2,2.5-5.1,2-7.9l-1.1-6.3c-0.9-5.2-3.4-10-7.2-13.8
			c-1.6-1.6-2.6-3.9-2.6-6.2c-1.6-0.4-2.8-1.8-2.8-3.5v-4.1c0-1.9,1.4-3.4,3.3-3.6c0.1-0.6,0.3-1.2,0.5-1.8l1.4-3.8L55.4,27z
			 M58.5,39.2v-4.1c0-0.9-0.7-1.6-1.6-1.6c-0.9,0-1.6,0.7-1.6,1.6v4.1c0,0.9,0.7,1.6,1.6,1.6C57.8,40.8,58.5,40.1,58.5,39.2
			L58.5,39.2z M71.9,39h-5.2c-0.2,0-0.3,0-0.4-0.1l-5.8-2.7v3c0,1-0.4,1.9-1.1,2.6l0.7,1h6.7v2.1h-7.2c-0.3,0-0.7-0.2-0.9-0.5
			L58.3,44c0.2,1.4,0.9,2.6,1.9,3.6c1,1,2,2.1,2.8,3.3l3.3-1.4c0.1-0.1,0.3-0.1,0.4-0.1h5.2V39z M78.1,39H74v10.3h4.1V39z
			 M53.3,63.2c0-1.9-1.2-3.7-3.1-4.2v-1.3c0-0.6-0.5-1-1-1c-0.6,0-1,0.5-1,1v1.2c-0.7,0.1-1.4,0.4-2,0.8l-1.8,1.3
			c-0.5,0.3-0.5,1-0.2,1.4c0.3,0.5,1,0.5,1.4,0.2l1.8-1.3c1-0.7,2.3-0.6,3.1,0.2c0.5,0.4,0.7,1.1,0.7,1.7c0,0.6-0.4,1.2-0.9,1.5
			l-3.2,1.6c-1.3,0.6-2.1,1.9-2.1,3.4c0,1.9,1.2,3.7,3.1,4.2v1.3c0,0.6,0.5,1,1,1c0.6,0,1-0.5,1-1V74c0.7-0.1,1.4-0.4,2-0.8l1.8-1.3
			c0.5-0.3,0.5-1,0.2-1.4c-0.3-0.5-1-0.6-1.4-0.2l-1.8,1.3c-1,0.7-2.3,0.6-3.1-0.2c-0.5-0.4-0.7-1.1-0.7-1.7c0-0.6,0.4-1.2,0.9-1.5
			l3.2-1.6C52.5,65.9,53.3,64.6,53.3,63.2L53.3,63.2z M53.3,63.2"/>
	</g>
</g>
</svg>
