<svg width="100" height="100" viewBox="0 0 100 100" fill="none" xmlns="http://www.w3.org/2000/svg">
<path d="M50 24.5125C56.3267 24.5125 62.3471 26.9754 66.8367 31.4908C71.3267 36.0062 73.7754 42.0608 73.7754 48.4233C73.7754 54.7858 71.3267 60.8408 66.8367 65.3558C62.3471 69.8712 56.3267 72.3342 50 72.3342C43.6733 72.3342 37.653 69.8712 33.1632 65.3558C28.6735 60.8408 26.2245 54.7858 26.2245 48.4233C26.2245 42.0608 28.6735 36.0062 33.1632 31.4908C37.653 26.9754 43.6733 24.5125 50 24.5125ZM50 19.3814C34.0816 19.3814 21.1225 32.4144 21.1225 48.4233C21.1225 64.4325 34.0816 77.4654 50 77.4654C65.9183 77.4654 78.8775 64.4325 78.8775 48.4233C78.8775 32.4144 65.9183 19.3814 50 19.3814ZM18.8775 25.5388C16.7347 24.5125 14.2857 25.5388 13.2653 27.5912C12.2449 29.6436 13.2653 32.2092 15.3061 33.2354C17.347 34.2616 19.898 33.2354 20.9184 31.1829C21.9388 29.0279 21.0204 26.4624 18.8775 25.5388ZM14.6939 64.0221C12.7551 65.3558 12.347 68.0242 13.6735 69.8712C15 71.7187 17.653 72.2317 19.4898 70.8975C21.4286 69.5633 21.8367 66.8954 20.5102 65.0483C19.1837 63.2008 16.6327 62.6879 14.6939 64.0221ZM45.8162 87.0092C46.0204 89.3696 48.0612 91.0112 50.4083 90.8062C52.755 90.6008 54.3879 88.5483 54.1837 86.1883C53.9796 83.8279 51.9387 82.1858 49.5917 82.3912C47.3471 82.5966 45.6121 84.6487 45.8162 87.0092ZM81.1225 71.3079C83.2654 72.3342 85.7142 71.3079 86.7346 69.2558C87.755 67.1004 86.7346 64.6375 84.6937 63.6112C82.5508 62.5854 80.1021 63.6112 79.0817 65.6637C78.0613 67.8187 78.9796 70.3846 81.1225 71.3079ZM85.3062 32.8249C87.245 31.4908 87.6529 28.8227 86.3267 26.9754C85 25.0257 82.3471 24.6152 80.51 25.9492C78.5712 27.2833 78.1633 29.9515 79.49 31.7987C80.8162 33.6459 83.3675 34.159 85.3062 32.8249ZM54.1837 9.83761C53.9796 7.47732 51.9387 5.83536 49.5917 6.04061C47.245 6.24586 45.6121 8.29832 45.8162 10.6586C46.0204 13.0189 48.0612 14.6609 50.4083 14.4556C52.6529 14.2504 54.3879 12.1979 54.1837 9.83761ZM25 4.91178C22.347 6.45111 21.5306 9.83761 22.9592 12.4032C24.4898 15.0713 27.8571 15.8923 30.4082 14.4556C32.9592 13.0189 33.8775 9.52978 32.449 6.96424C31.0204 4.29607 27.653 3.37246 25 4.91178ZM31.3265 15.8923C30.2041 16.508 29.7959 18.0474 30.4082 19.1762C31.0204 20.3051 32.551 20.7155 33.6735 20.0998C34.7959 19.4841 35.2041 17.9447 34.5918 16.8159C33.8775 15.5844 32.449 15.1739 31.3265 15.8923ZM0 48.4233C0 51.5021 2.44898 53.965 5.51021 53.965C8.57142 53.965 11.0204 51.5021 11.0204 48.4233C11.0204 45.3446 8.57142 42.8817 5.51021 42.8817C2.44898 42.8817 0 45.3446 0 48.4233ZM12.653 48.4233C12.653 49.7575 13.6735 50.7837 15 50.7837C16.3265 50.7837 17.347 49.7575 17.347 48.4233C17.347 47.0892 16.3265 46.0629 15 46.0629C13.6735 46.0629 12.653 47.0892 12.653 48.4233ZM25 91.935C27.653 93.4742 31.0204 92.5508 32.449 89.8825C33.9796 87.2146 33.0612 83.8279 30.4082 82.3912C27.7551 80.8521 24.3877 81.7754 22.9592 84.4437C21.5306 87.0092 22.347 90.3958 25 91.935ZM31.3265 80.9546C32.449 81.5704 33.9796 81.2625 34.5918 80.0308C35.2041 78.9021 34.898 77.3629 33.6735 76.7471C32.551 76.1312 31.0204 76.4392 30.4082 77.6704C29.7959 78.7996 30.2041 80.3387 31.3265 80.9546ZM75 91.935C77.6529 90.3958 78.4696 87.0092 77.0408 84.4437C75.51 81.7754 72.1429 80.9546 69.5917 82.3912C66.9387 83.9304 66.1225 87.3171 67.5508 89.8825C68.9796 92.4483 72.3471 93.4742 75 91.935ZM68.6733 80.9546C69.7958 80.3387 70.2042 78.7996 69.5917 77.6704C68.9796 76.5417 67.4492 76.1312 66.3267 76.7471C65.2042 77.3629 64.7958 78.9021 65.4083 80.0308C66.1225 81.2625 67.5508 81.6729 68.6733 80.9546ZM100 48.4233C100 45.3446 97.5508 42.8817 94.49 42.8817C91.4287 42.8817 88.9796 45.3446 88.9796 48.4233C88.9796 51.5021 91.4287 53.965 94.49 53.965C97.5508 53.965 100 51.5021 100 48.4233ZM87.3471 48.4233C87.3471 47.0892 86.3267 46.0629 85 46.0629C83.6733 46.0629 82.6529 47.0892 82.6529 48.4233C82.6529 49.7575 83.6733 50.7837 85 50.7837C86.3267 50.7837 87.3471 49.7575 87.3471 48.4233ZM75 4.91178C72.3471 3.37246 68.9796 4.29607 67.5508 6.96424C66.0204 9.6324 66.9387 13.0189 69.5917 14.4556C72.245 15.8923 75.6121 15.0713 77.0408 12.4032C78.4696 9.83761 77.6529 6.45111 75 4.91178ZM68.6733 15.8923C67.5508 15.2766 66.0204 15.5844 65.4083 16.8159C64.7958 17.9447 65.1021 19.4841 66.3267 20.0998C67.4492 20.7155 68.9796 20.4077 69.5917 19.1762C70.2042 18.0474 69.7958 16.508 68.6733 15.8923ZM30 47.8075C30 44.0108 32.8571 41.3425 36.8367 41.3425C39.1837 41.3425 41.1225 42.2662 42.3471 43.8054L39.6939 46.1658C38.9796 45.2421 38.1632 44.7292 37.0408 44.7292C35.3061 44.7292 34.1837 45.9604 34.1837 47.8075C34.1837 49.655 35.3061 50.8862 37.0408 50.8862C38.1632 50.8862 38.9796 50.3733 39.6939 49.4496L42.3471 51.81C41.1225 53.3492 39.2857 54.2729 36.8367 54.2729C32.9592 54.1704 30 51.6046 30 47.8075ZM42.755 47.8075C42.755 44.0108 45.6121 41.3425 49.5917 41.3425C51.9387 41.3425 53.8775 42.2662 55.1021 43.8054L52.4492 46.1658C51.7346 45.2421 50.9183 44.7292 49.7958 44.7292C48.0612 44.7292 46.9387 45.9604 46.9387 47.8075C46.9387 49.655 48.0612 50.8862 49.7958 50.8862C50.9183 50.8862 51.7346 50.3733 52.4492 49.4496L55.1021 51.81C53.8775 53.3492 52.0408 54.2729 49.5917 54.2729C45.7142 54.1704 42.755 51.6046 42.755 47.8075ZM70 55.5042C69.1837 56.5304 67.8571 57.0437 66.4287 57.0437C64.2858 57.0437 62.9592 56.3254 60.7142 54.0675C57.6529 53.4521 55.51 50.9892 55.51 47.8075C55.51 44.1133 58.4696 41.3425 62.4492 41.3425C66.4287 41.3425 69.3879 44.0108 69.3879 47.8075C69.3879 50.5783 67.8571 52.7333 65.4083 53.6571C65.8162 54.0675 66.1225 54.1704 66.5304 54.1704C67.1429 54.1704 67.755 53.8625 68.2654 53.3492L70 55.5042ZM59.6937 47.8075C59.6937 49.7575 60.9183 50.8862 62.4492 50.8862C63.9796 50.8862 65.2042 49.7575 65.2042 47.8075C65.2042 45.8579 63.9796 44.7292 62.4492 44.7292C60.9183 44.7292 59.6937 45.8579 59.6937 47.8075Z" fill="#1F6CFF"/>
</svg>
