<?xml version="1.0" encoding="utf-8"?>
<!-- Generator: Adobe Illustrator 25.3.1, SVG Export Plug-In . SVG Version: 6.00 Build 0)  -->
<svg version="1.1" id="Layer_1" xmlns="http://www.w3.org/2000/svg" xmlns:xlink="http://www.w3.org/1999/xlink" x="0px" y="0px"
	 viewBox="0 0 500 500" style="enable-background:new 0 0 500 500;" xml:space="preserve">
<style type="text/css">
	.st0{fill:url(#SVGID_1_);}
	.st1{fill:url(#SVGID_2_);}
	.st2{fill:url(#SVGID_3_);}
</style>
<g>
	<linearGradient id="SVGID_1_" gradientUnits="userSpaceOnUse" x1="257.3053" y1="18.5526" x2="253.424" y2="222.3169">
		<stop  offset="0" style="stop-color:#00B1FC"/>
		<stop  offset="1" style="stop-color:#3376BD"/>
	</linearGradient>
	<path class="st0" d="M283.1,127.8c7.2-1.4,14.4-2.6,21.7-3.7c-9.3-8.4-19-16.5-28.9-24c-2.9-2.2-3.9-6.2-2.4-9.5
		c1.3-2.8,4.1-4.6,7.1-4.6c0.6,0,1.1,0.1,1.7,0.2c21.6,4.7,43.1,11.2,63.8,19.2c9.1,3.5,18,7.3,26.9,11.5c1.8-0.1,3.6-0.2,5.5-0.3
		c6-1.6,10.9-5.8,13.4-11.4l0,0l0.3-0.6L430,17.2c-11.8-1.7-23.6-3.1-35.5-4.2c-6.5-0.6-13-1.1-19.5-1.5c0,0,0,0,0,0
		c-15.1-1-30.3-1.5-45.6-1.5c-58.1,0-114.6,7.1-168.5,20.6c-1.1,0.3-2.2,0.6-3.4,0.8c0,0,0,0,0,0C117.1,42.3,87,77.8,84.1,120.7l0,0
		l-0.2,6.3v0l-2.6,72.6c7.5-4.1,15.2-8.1,22.9-11.9C159.9,160.1,220,139.7,283.1,127.8z"/>
	<linearGradient id="SVGID_2_" gradientUnits="userSpaceOnUse" x1="132.0596" y1="358.2458" x2="299.3056" y2="489.7497">
		<stop  offset="0" style="stop-color:#173690"/>
		<stop  offset="0.1214" style="stop-color:#134AA0"/>
		<stop  offset="0.3118" style="stop-color:#0E61B4"/>
		<stop  offset="0.5136" style="stop-color:#0B73C3"/>
		<stop  offset="0.7326" style="stop-color:#097DCB"/>
		<stop  offset="1" style="stop-color:#0880CE"/>
	</linearGradient>
	<path class="st1" d="M94.4,430.6c-0.6,1.7-1.3,3.4-1.9,5C89.2,444.7,70,490,70,490h132.8l22.7-238.8
		C167.1,297.4,121.5,359,94.4,430.6z"/>
	<linearGradient id="SVGID_3_" gradientUnits="userSpaceOnUse" x1="36.5449" y1="366.2658" x2="440.1752" y2="107.1915">
		<stop  offset="0" style="stop-color:#00B1FC"/>
		<stop  offset="1" style="stop-color:#61AD52"/>
	</linearGradient>
	<path class="st2" d="M396.1,137.5c0.4,0.2,0.5,0.6,0.4,1c-0.1,0.4-0.2,0.7-0.3,1.1c-2.1,6.6-4.4,13.1-6.9,19.6
		c-1.6,4.2-3.2,8.3-5,12.5c-2.9,7-6,14-9.3,20.8c-14.5,30.2-32.4,58.5-53.3,84.3c11.2-33.1,18.4-68.1,21.1-104.3
		C223,214.3,127.3,307.7,82.4,426.1c-0.7,1.7-1.3,3.5-1.9,5.2c-3.4,9.4-6.5,18.9-9.3,28.5l1.2-31.6l6.1-163.3
		c0.3-7.6,3.1-14.5,7.6-19.9c0.4-0.4,0.7-0.8,1.1-1.2c25.7-29.2,57.5-52.3,93.2-67.6c39.1-16.8,79.2-31.7,121-40.1
		c8-1.6,16-2.5,24.1-3c-4.5-4.5-9.1-9-13.9-13.3c-9.9-9.1-20.3-17.7-31-25.9c21.5,4.7,42.5,11.1,62.6,18.9
		C361.5,119.8,379.1,128.1,396.1,137.5C396.1,137.5,396.1,137.5,396.1,137.5z"/>
</g>
</svg>
