<?xml version="1.0" encoding="utf-8"?>
<!-- Generator: Adobe Illustrator 25.3.1, SVG Export Plug-In . SVG Version: 6.00 Build 0)  -->
<svg version="1.1" id="Layer_1" xmlns="http://www.w3.org/2000/svg" xmlns:xlink="http://www.w3.org/1999/xlink" x="0px" y="0px"
	 viewBox="0 0 1024 1024" style="enable-background:new 0 0 1024 1024;" xml:space="preserve">
<style type="text/css">
	.st0{display:none;opacity:0.1;}
	.st1{display:inline;fill:#FFFFFF;}
	.st2{font-family:'UTMAvoBold';}
	.st3{font-size:1188.1392px;}
	.st4{fill:#FFFFFF;}
	.st5{fill:url(#SVGID_1_);}
</style>
<g class="st0">
	<text transform="matrix(0.347 0 0 1 2.6216 964.5596)" class="st1 st2 st3">2022</text>
</g>
<g class="st0">
	
		<image style="display:inline;overflow:visible;" width="4393" height="4104" xlink:href="18E37D46.png"  transform="matrix(0.24 0 0 0.24 -15.36 32.64)">
	</image>
</g>
<image style="display:none;overflow:visible;opacity:0.5;" width="180" height="180" xlink:href="18E37D4A.jpg"  transform="matrix(5.6503 0 0 5.6503 3.4699 3.47)">
</image>
<g>
	<path class="st4" d="M563.8,320.8c11.2-2.1,22.5-4.1,33.9-5.8c-14.5-13.1-29.7-25.8-45.2-37.5c-4.6-3.5-6.1-9.7-3.7-14.9
		c2-4.4,6.4-7.1,11.1-7.1c0.9,0,1.8,0.1,2.6,0.3c33.9,7.4,67.5,17.5,99.8,30.1c14.2,5.5,28.2,11.5,42.1,18c2.8-0.2,5.7-0.3,8.5-0.4
		c9.4-2.5,17.1-9.1,21-17.8l0,0l0.4-0.9l59.3-136.8c-18.4-2.7-36.9-4.9-55.6-6.6c-10.1-0.9-20.3-1.7-30.5-2.4c0,0,0,0,0,0
		c-23.6-1.5-47.4-2.3-71.4-2.3c-90.9,0-179.3,11.2-263.7,32.2c-1.8,0.4-3.5,0.9-5.3,1.3c0,0,0,0-0.1,0
		c-63,17-110.1,72.6-114.7,139.8l0,0l-0.4,9.8v0l-4.1,113.6c11.8-6.4,23.7-12.6,35.8-18.6C371,371.3,465.1,339.4,563.8,320.8z"/>
	<path class="st4" d="M268.5,794.6c-1,2.6-2,5.3-2.9,7.9c-5.2,14.2-35.1,85.1-35.1,85.1h207.8l35.6-373.6
		C382.2,586.2,310.9,682.6,268.5,794.6z"/>
	<path class="st4" d="M740.6,336c0.6,0.3,0.8,1,0.6,1.6c-0.2,0.6-0.4,1.1-0.5,1.7c-3.4,10.3-6.9,20.6-10.8,30.7
		c-2.5,6.6-5.1,13.1-7.8,19.5c-4.6,11-9.4,21.9-14.6,32.6c-22.7,47.3-50.8,91.6-83.4,132c17.5-51.9,28.8-106.6,33-163.2
		C469.7,456.1,320,602.3,249.8,787.5c-1,2.7-2,5.4-3,8.2c-5.3,14.6-10.2,29.5-14.5,44.6l1.8-49.4l9.5-255.6
		c0.4-11.8,4.9-22.6,11.9-31.2c0.6-0.6,1.1-1.3,1.7-1.9c40.2-45.7,90-81.8,145.8-105.8c61.1-26.3,124-49.6,189.4-62.7
		c12.5-2.5,25-3.8,37.7-4.7c-7.1-7.1-14.3-14-21.7-20.8c-15.5-14.2-31.7-27.8-48.5-40.5c33.7,7.4,66.4,17.3,98,29.5
		C686.4,308.3,714,321.3,740.6,336C740.6,336,740.6,336,740.6,336z"/>
</g>
<radialGradient id="SVGID_1_" cx="-2255.269" cy="567.9222" r="1421.5837" gradientTransform="matrix(0 1 -1 0 -1214.7373 3358.7368)" gradientUnits="userSpaceOnUse">
	<stop  offset="0" style="stop-color:#FFFFFF"/>
	<stop  offset="1" style="stop-color:#00C2F9"/>
</radialGradient>
</svg>
