<?xml version="1.0" encoding="utf-8"?>
<!-- Generator: Adobe Illustrator 25.3.1, SVG Export Plug-In . SVG Version: 6.00 Build 0)  -->
<svg version="1.1" id="Layer_1" xmlns="http://www.w3.org/2000/svg" xmlns:xlink="http://www.w3.org/1999/xlink" x="0px" y="0px"
	 viewBox="0 0 102.7 102.7" style="enable-background:new 0 0 102.7 102.7;" xml:space="preserve">
<style type="text/css">
	.st0{fill:url(#SVGID_1_);}
	.st1{fill:#FFFFFF;}
</style>
<g>
	<linearGradient id="SVGID_1_" gradientUnits="userSpaceOnUse" x1="15.0345" y1="87.6276" x2="87.6276" y2="15.0345">
		<stop  offset="0" style="stop-color:#FF2A93"/>
		<stop  offset="1" style="stop-color:#1089DB"/>
	</linearGradient>
	<circle class="st0" cx="51.3" cy="51.3" r="51.3"/>
	<g>
		<path class="st1" d="M27.5,21.3h32.1c0.6,0,1,0.5,1,1v24.9h12.4c0.6,0,1,0.5,1,1v3.1h1c0.6,0,1,0.5,1,1v28c0,0.6-0.5,1-1,1H37.9
			c-0.6,0-1-0.5-1-1V64.8h-9.3c-0.6,0-1-0.5-1-1V22.3C26.5,21.7,26.9,21.3,27.5,21.3L27.5,21.3z M72.1,49.3H60.7v5.2h1.6l2.8-2.8
			c0.2-0.2,0.5-0.3,0.7-0.3h6.2V49.3z M38.9,79.3h35.2V53.4h-7.9l-2.8,2.8c-0.2,0.2-0.5,0.3-0.7,0.3H38.9V79.3z M49.3,53.6l2.6-3.9
			c-1.6-0.8-3.4-0.6-4.8,0.5L49.3,53.6z M45.6,51.9c-0.3,0.6-0.5,1.3-0.5,2v0.5h2.2L45.6,51.9z M51.2,54.4h3.2v-0.5c0-1-0.4-2-1-2.8
			L51.2,54.4z M28.5,62.7h8.3v-7.3c0-0.6,0.5-1,1-1H43v-0.5c0-3.7,3-6.7,6.7-6.7c3.7,0,6.7,3,6.7,6.7v0.5h2.1V23.4H28.5V62.7z
			 M54.7,41.7l1.5-1.5L51,35.1c-0.2-0.2-0.5-0.3-0.8-0.3c-0.3,0-0.6,0.2-0.8,0.4l-3.4,4.3l-9.8-9.8h2.7v-2.1h-5.2c-0.6,0-1,0.5-1,1
			v5.2h2.1V31l10.7,10.7c0.2,0.2,0.5,0.3,0.7,0.3h0.1c0.3,0,0.6-0.2,0.8-0.4l3.4-4.3L54.7,41.7z M37.9,37.9h-5.2v2.1h5.2V37.9z
			 M42,42h-9.3v2.1H42V42z M37.9,46.1h-5.2v2.1h5.2V46.1z M41,50.3h-8.3v2.1H41V50.3z M70,73.1h-6.2v2.1H70V73.1z M61.7,73.1h-2.1
			v2.1h2.1V73.1z M70,68.9H59.6V71H70V68.9z M70,68.9"/>
	</g>
</g>
</svg>
