<svg width="100" height="100" viewBox="0 0 100 100" fill="none" xmlns="http://www.w3.org/2000/svg">
<g clip-path="url(#clip0_2_88)">
<path d="M40.2585 0.58055C57.6727 -1.66828 72.7309 2.52272 84.9209 14.789C97.6227 27.4643 102.028 42.8994 99.1595 60.9923C91.1695 59.05 83.3841 57.21 75.3941 55.37C76.0086 50.3614 75.5991 45.6595 73.755 41.1617C69.4527 30.3264 58.7995 23.6821 47.1218 24.3977C46.4045 24.3977 45.1754 23.7844 45.073 23.171C43.5365 15.8112 41.9999 8.34923 40.2585 0.58055ZM43.5365 80.4141C31.6538 78.9827 22.537 70.9077 19.9761 59.4591C18.7469 53.9391 19.259 48.5214 21.5126 43.206C24.7906 35.4374 30.7319 30.633 38.517 27.7709C37.083 21.3311 35.6489 15.1979 34.3172 9.06477C8.70809 15.1979 -4.40374 42.4905 1.33269 63.0368C1.94731 62.8323 2.56193 62.73 3.17655 62.5255C3.79116 62.3209 4.30335 62.0145 5.02041 61.7077C3.17655 51.7923 4.50822 42.3883 9.32273 33.5975C14.1372 24.7044 21.2053 18.2645 31.0392 14.4824C31.8587 18.2645 32.6782 21.8422 33.4977 25.2155C18.7469 33.393 13.1129 45.5573 16.2884 62.0145C11.5763 63.7523 6.96668 65.3877 2.15218 67.1255C2.66436 68.5564 3.07411 69.6809 3.58629 71.0095C8.29836 69.3741 13.1129 67.7386 17.2103 66.3077C20.181 69.9877 22.537 73.6673 25.6101 76.5295C28.7856 79.3918 32.7806 81.4359 36.5708 83.8895C35.444 88.285 34.3172 93.0891 33.088 98.0977C34.6245 98.4045 35.8537 98.7114 37.1854 99.0177C38.517 94.0091 39.7463 89.1027 40.9755 84.4005C56.1359 85.9336 67.1991 80.1073 74.5745 67.0232C78.16 67.9432 81.6427 68.7609 85.1255 69.6809C79.6964 85.1159 62.6918 96.2582 45.4827 95.7468C42.1023 95.6445 41.795 95.9514 41.8975 99.6314C65.5605 102.8 86.6623 85.0136 90.4523 66.8186C84.4086 65.2855 78.365 63.65 72.2186 62.1168C65.3555 75.6095 55.6241 81.845 43.5365 80.4141ZM9.32273 73.7695C8.0935 74.1786 6.86427 74.6895 5.43014 75.2009C10.8593 85.2182 18.6444 92.1691 29.0929 96.4623C29.5027 94.9291 29.81 93.8045 30.1173 92.4759C17.3128 85.0136 16.903 84.7073 9.32273 73.7695ZM63.1018 41.4683C62.4873 41.3661 61.975 41.2639 61.3605 41.2639C58.0823 41.1617 58.0823 41.1617 58.0823 44.5349C58.0823 50.1568 58.0823 55.7791 58.0823 61.2991C58.0823 62.73 58.0823 64.1609 58.0823 65.6945C59.9264 65.6945 61.4627 65.6945 63.1018 65.6945C63.1018 57.6191 63.1018 49.6459 63.1018 41.4683ZM48.6582 46.7836C46.9168 46.7836 45.4827 46.7836 43.8438 46.7836C43.8438 53.1214 43.8438 59.3568 43.8438 65.6945C45.4827 65.6945 47.0191 65.6945 48.6582 65.6945C48.6582 59.2545 48.6582 53.1214 48.6582 46.7836ZM41.5901 65.6945C41.5901 60.89 41.5901 56.1877 41.5901 51.1791C40.156 51.1791 38.9268 51.0768 37.6976 51.2814C37.2878 51.3836 36.5708 52.0991 36.5708 52.5082C36.4684 56.9036 36.5708 61.1968 36.5708 65.7964C38.4146 65.6945 39.9512 65.6945 41.5901 65.6945ZM55.8286 65.6945C55.8286 60.7877 55.8286 56.0859 55.8286 51.2814C54.0873 51.2814 52.6532 51.2814 51.0141 51.2814C51.0141 56.0859 51.0141 60.7877 51.0141 65.6945C52.7559 65.6945 54.2923 65.6945 55.8286 65.6945ZM29.6051 58.8455C29.0929 66.9209 28.6832 66.2055 34.3172 65.5923C34.3172 63.3432 34.3172 61.1968 34.3172 58.8455C32.5758 58.8455 31.0392 58.8455 29.6051 58.8455Z" fill="#1F6CFF"/>
</g>
<defs>
<clipPath id="clip0_2_88">
<rect width="100" height="100" fill="white"/>
</clipPath>
</defs>
</svg>
