<svg width="99" height="99" viewBox="0 0 99 99" fill="none" xmlns="http://www.w3.org/2000/svg">
<g clip-path="url(#clip0_2_46)">
<path d="M80.4553 84.5447H10.2553C6.95531 84.5447 4.25531 81.8447 4.25531 78.5447V40.2447C4.25531 36.9447 6.95531 34.2447 10.2553 34.2447H80.4553C83.7553 34.2447 86.4553 36.9447 86.4553 40.2447V78.5447C86.4553 81.8447 83.7553 84.5447 80.4553 84.5447Z" fill="#AECAFF"/>
<path d="M68.9053 35.4555C72.3996 27.8832 69.0936 18.9121 61.5213 15.4178C53.9491 11.9236 44.9779 15.2295 41.4836 22.8017C37.9893 30.3741 41.2953 39.3451 48.8676 42.8394C56.4398 46.3336 65.4111 43.0279 68.9053 35.4555Z" fill="#FF9900"/>
<path d="M62.2553 26.9449L54.9553 39.5449L54.1553 38.9449C53.9553 38.8449 53.8553 38.7449 53.7553 38.7449C53.6553 38.7449 53.4553 38.6449 53.2553 38.5449L54.4553 36.4449C52.6553 37.4449 51.0553 37.4449 49.5553 36.6449C48.2553 35.9449 47.5553 34.9449 47.2553 33.6449C46.9553 32.2449 47.3553 30.7449 48.2553 29.0449C49.1553 27.5449 50.2553 26.5449 51.6553 25.9449C53.0553 25.4449 54.4553 25.5449 55.8553 26.3449C56.5553 26.7449 57.1553 27.3449 57.4553 27.9449C57.7553 28.6449 57.9553 29.4449 57.9553 30.3449L60.4553 25.9449L57.7553 24.3449L58.2553 23.4449L60.9553 25.0449L62.3553 22.6449L63.1553 23.1449L64.0553 23.5449L62.6553 25.9449L63.5553 26.4449L63.0553 27.3449L62.2553 26.9449ZM56.4553 33.2449C57.0553 32.1449 57.3553 31.1449 57.3553 30.2449C57.3553 29.0449 56.8553 28.1449 55.8553 27.5449C54.6553 26.8449 53.4553 26.8449 52.3553 27.5449C51.5553 28.0449 50.7553 29.0449 49.9553 30.4449C49.3553 31.5449 49.0553 32.5449 49.0553 33.5449C49.0553 34.7449 49.5553 35.6449 50.5553 36.2449C51.6553 36.8449 52.7553 36.8449 53.9553 36.0449C54.8553 35.3449 55.7553 34.4449 56.4553 33.2449Z" fill="white"/>
<path d="M37.1779 44.5509C39.3223 39.0445 36.597 32.8421 31.0906 30.6974C25.584 28.553 19.3818 31.2783 17.2372 36.7847C15.0927 42.2913 17.8181 48.4934 23.3245 50.6381C28.8308 52.7826 35.0332 50.0572 37.1779 44.5509Z" fill="#FF9900"/>
<g opacity="0.5">
<path opacity="0.5" d="M84.8553 13.9447C89.8811 13.9447 93.9553 9.87048 93.9553 4.84469C93.9553 -0.1811 89.8811 -4.25531 84.8553 -4.25531C79.8296 -4.25531 75.7553 -0.1811 75.7553 4.84469C75.7553 9.87048 79.8296 13.9447 84.8553 13.9447Z" fill="#FF9900"/>
<path opacity="0.5" d="M87.8551 1.54472V10.3447L87.3551 10.2447C87.2551 10.2447 87.1551 10.2447 87.0551 10.2447C86.9551 10.2447 86.8551 10.2447 86.7551 10.3447V8.94472C86.1551 9.94472 85.2551 10.5447 84.2551 10.5447C83.3551 10.5447 82.6551 10.2447 82.1551 9.64472C81.5551 9.04472 81.3551 8.14472 81.3551 6.94472C81.3551 5.94472 81.6551 5.04472 82.2551 4.34472C82.8551 3.64472 83.5551 3.24472 84.5551 3.24472C85.0551 3.24472 85.5551 3.34472 85.8551 3.64472C86.2551 3.84472 86.5551 4.24472 86.8551 4.74472V1.54472H84.9551V0.844718H86.8551V-0.75528H87.4551H88.0551V0.844718H88.6551V1.54472H87.8551ZM86.7551 6.54472C86.7551 5.84472 86.6551 5.14472 86.3551 4.64472C85.9551 4.04472 85.4551 3.74472 84.7551 3.74472C83.8551 3.74472 83.2551 4.14472 82.9551 4.84472C82.6551 5.34472 82.5551 6.14472 82.5551 7.04472C82.5551 7.74472 82.6551 8.44472 82.9551 8.94472C83.2551 9.54472 83.8551 9.84472 84.5551 9.84472C85.3551 9.84472 85.8551 9.44472 86.2551 8.74472C86.5551 8.14472 86.7551 7.44472 86.7551 6.54472Z" fill="white"/>
</g>
<path d="M87.9553 95.7447H10.2553C6.95531 95.7447 4.25531 93.0447 4.25531 89.7447V40.8447H87.9553C91.2553 40.8447 93.9553 43.5447 93.9553 46.8447V89.7447C93.9553 93.0447 91.2553 95.7447 87.9553 95.7447Z" fill="#1F6CFF"/>
<path d="M69.9551 80.4445H96.4551V56.7445H69.9551C64.8551 56.7445 60.6551 60.9445 60.6551 66.0445V71.1445C60.6551 76.3445 64.8551 80.4445 69.9551 80.4445Z" fill="#AECAFF"/>
<path d="M71.3553 72.9445C73.7302 72.9445 75.6553 71.0194 75.6553 68.6445C75.6553 66.2698 73.7302 64.3445 71.3553 64.3445C68.9804 64.3445 67.0553 66.2698 67.0553 68.6445C67.0553 71.0194 68.9804 72.9445 71.3553 72.9445Z" fill="white"/>
</g>
<defs>
<clipPath id="clip0_2_46">
<rect width="100" height="100" fill="white"/>
</clipPath>
</defs>
</svg>
