<svg width="48" height="48" viewBox="0 0 48 48" fill="none" xmlns="http://www.w3.org/2000/svg">
<path d="M39.9622 42.3425H22.8031V46.0003H39.9622V42.3425Z" fill="#00D1FF"/>
<path d="M38.0796 2H7.2041V5.65773H38.0796V2Z" fill="#949494"/>
<path d="M13.2823 25.5601C13.2823 27.2276 13.2823 28.895 13.2823 30.6163C14.143 30.6163 14.9498 30.6163 15.8105 30.6163C16.6711 30.6163 17.478 30.6163 18.3386 30.6163C18.231 28.2496 15.5953 25.6138 13.2823 25.5601Z" fill="#E8FBEF"/>
<path d="M22.8032 11.521C25.7617 11.521 28.6126 8.99281 28.5588 6.41089C24.6859 6.41089 20.8668 6.41089 16.9939 6.41089C17.1015 8.5087 19.1455 11.521 22.8032 11.521Z" fill="#E8FBEF"/>
<path d="M26.0307 29.2715C26.1383 28.8412 26.5148 28.3571 26.4072 27.9806C26.2996 27.604 25.8155 27.2813 25.439 26.9586C24.7397 26.2593 24.3094 25.3448 24.2556 24.3228C24.2018 22.7629 25.0625 21.3106 26.461 20.6651C28.0209 19.9658 29.4195 20.2348 30.6566 21.3106C31.1946 21.7947 31.6787 22.3326 32.1628 22.8705C32.2166 22.8705 32.2166 22.8167 32.2704 22.8167C32.2704 17.3301 32.2704 11.8435 32.2704 6.35693C31.5173 6.35693 30.818 6.35693 30.065 6.35693C29.8498 8.1858 29.0967 9.74571 27.752 10.9829C26.4072 12.2201 24.7935 12.8655 22.9647 12.9193C21.2972 12.9731 19.8448 12.5428 18.5001 11.5746C16.725 10.2836 15.703 8.50854 15.434 6.35693C14.681 6.35693 13.9279 6.35693 13.2286 6.35693C13.2286 12.2201 13.2286 18.0832 13.2286 23.9463C16.9939 24.5918 19.1456 26.851 19.8448 30.5087C21.8351 30.5087 23.7715 30.5087 25.708 30.5087C25.8155 30.1322 25.9231 29.7018 26.0307 29.2715Z" fill="#17D85C"/>
<path d="M27.214 30.6161C27.8595 30.6161 28.3974 30.6161 28.8815 30.6161C28.4512 30.1858 28.0208 29.7554 27.5367 29.2175C27.4829 29.6479 27.3754 30.132 27.214 30.6161Z" fill="#E8FBEF"/>
<path d="M37.5418 18.3524C37.1114 17.0076 36.6273 15.6629 36.197 14.3181C35.8205 13.1885 34.8522 12.3817 33.8302 12.3279C33.8302 12.3817 33.8302 12.4893 33.8302 12.543C33.8302 16.4159 33.8302 20.235 33.8302 24.1079C33.8302 24.2693 33.9378 24.4845 34.0454 24.592C34.6371 25.1837 35.2288 25.7754 35.7667 26.3133C35.4439 26.6899 35.1212 27.0126 34.7447 27.4429C34.6371 27.2815 34.5295 27.174 34.4219 27.0126C32.9158 25.5065 31.4097 24.0003 29.9035 22.4942C29.3119 21.9025 28.5588 21.6336 27.7519 21.7949C26.8375 21.9563 26.192 22.548 25.9231 23.4087C25.6541 24.3231 25.8155 25.1299 26.5148 25.8292C28.0747 27.4429 29.6884 29.0028 31.3021 30.6165C31.84 31.1544 31.84 31.4772 31.3021 32.0151C30.4952 32.8757 30.0111 33.8439 29.7422 34.9735C29.4732 36.1569 29.527 37.2865 29.8498 38.4699C29.3656 38.6313 28.9353 38.7388 28.4512 38.9002C27.7519 36.4797 28.0747 34.2205 29.3656 32.0689C27.0527 32.0689 24.7935 32.0689 22.5343 32.0689C22.5343 32.1764 22.5881 32.2302 22.5881 32.3378C23.7715 35.3501 25.0086 38.3085 26.192 41.3208C26.2996 41.5897 26.461 41.5897 26.6761 41.5897C30.2263 41.5897 33.7227 41.5897 37.2728 41.5897C37.5955 41.5897 37.7031 41.5359 37.7569 41.1594C38.51 37.0176 39.3168 32.9295 40.1237 28.8415C40.3388 27.7119 40.4464 26.6899 40.0161 25.5603C39.1017 23.1935 38.3486 20.7729 37.5418 18.3524Z" fill="#FFF7F0"/>
<path d="M37.4879 13.6725C37.0037 12.2201 35.8741 11.3057 34.4218 10.9292C34.2067 10.8754 34.0453 10.8216 33.8301 10.8216C33.8301 9.36925 33.8301 7.91692 33.8301 6.41079C33.9915 6.41079 34.1529 6.41079 34.3142 6.41079C35.4976 6.41079 36.7348 6.41079 37.9182 6.41079C38.725 6.41079 38.9402 6.19563 38.9402 5.38878C38.9402 4.85088 38.9402 4.36677 38.9402 3.82886C38.9402 3.23717 38.9402 2.64548 38.9402 2.05379C38.4023 2.05379 37.972 2.05379 37.4341 2.05379C37.4341 3.02201 37.4341 3.99024 37.4341 4.90467C27.6443 4.90467 17.8544 4.90467 8.06464 4.90467C8.06464 3.93645 8.06464 2.96822 8.06464 2C7.58053 2 7.09642 2 6.6123 2C6.6123 3.23717 6.6123 4.47435 6.6123 5.71152C6.6123 6.14184 6.93505 6.357 7.41916 6.357C8.22601 6.357 9.03286 6.357 9.78592 6.357C10.4314 6.357 11.0769 6.357 11.7224 6.357C11.7224 6.57216 11.7224 6.78732 11.7224 6.94869C11.7224 14.9634 11.7224 23.0319 11.7224 31.0467C11.7224 31.8535 11.9375 32.0687 12.7444 32.0687C15.3263 32.0687 17.8544 32.0687 20.4364 32.0687C20.7053 32.0687 20.8667 32.1763 20.9743 32.4452C22.1577 35.4037 23.341 38.3621 24.5244 41.3206C24.5782 41.4282 24.5782 41.5358 24.632 41.6433C24.0403 41.6433 23.4486 41.6433 22.9107 41.6433C22.4266 41.6433 22.1039 41.9123 22.1039 42.2888C22.1039 43.526 22.1039 44.7632 22.1039 46.0003C22.588 46.0003 23.0721 46.0003 23.61 46.0003C23.61 45.0321 23.61 44.0639 23.61 43.0957C28.7738 43.0957 33.8839 43.0957 39.0478 43.0957C39.0478 44.0639 39.0478 45.0321 39.0478 46.0003C39.5857 46.0003 40.016 46.0003 40.5001 46.0003C40.5001 44.9783 40.5001 44.0101 40.5001 43.0419C40.5001 41.7509 40.5001 41.7509 39.2091 41.5895C39.2091 41.482 39.2091 41.4282 39.2091 41.3744C39.9622 37.2863 40.7691 33.1983 41.5759 29.1102C41.7911 28.0344 42.06 26.9586 41.6835 25.8828C40.2311 21.8486 38.8864 17.7605 37.4879 13.6725ZM28.5587 6.41079C28.6125 8.99272 25.7616 11.5209 22.8031 11.5209C19.1454 11.5209 17.1014 8.50861 16.9938 6.41079C20.8667 6.41079 24.7396 6.41079 28.5587 6.41079ZM15.7566 30.6164C14.9498 30.6164 14.0891 30.6164 13.2285 30.6164C13.2285 28.8951 13.2285 27.2276 13.2285 25.5601C15.5415 25.5601 18.1772 28.1958 18.231 30.6164C17.4241 30.6164 16.6173 30.6164 15.7566 30.6164ZM19.8447 30.5626C19.1992 26.851 16.9938 24.6457 13.2285 24.0002C13.2285 18.137 13.2285 12.2739 13.2285 6.41079C13.9278 6.41079 14.6808 6.41079 15.4339 6.41079C15.7028 8.5624 16.7249 10.3375 18.4999 11.6284C19.8447 12.5967 21.3508 13.027 22.9645 12.9732C24.7934 12.9194 26.4071 12.2739 27.7518 11.0367C29.0966 9.79957 29.8497 8.23966 30.0648 6.41079C30.8179 6.41079 31.5171 6.41079 32.2702 6.41079C32.2702 11.8974 32.2702 17.384 32.2702 22.8706C32.2164 22.8706 32.2164 22.9244 32.1626 22.9244C31.6785 22.3865 31.1944 21.8486 30.6565 21.3645C29.4193 20.2349 27.967 20.0197 26.4609 20.719C25.0623 21.3645 24.1479 22.8168 24.2555 24.3767C24.3093 25.3987 24.7396 26.2594 25.4389 27.0124C25.7616 27.3352 26.2995 27.6579 26.4071 28.0344C26.5147 28.411 26.1381 28.8951 26.0306 29.3254C25.923 29.7557 25.8154 30.186 25.7078 30.6701C23.7714 30.5626 21.8349 30.5626 19.8447 30.5626ZM40.0698 28.8951C39.2629 32.9831 38.4561 37.125 37.703 41.213C37.6492 41.5358 37.5416 41.6433 37.2189 41.6433C33.6688 41.6433 30.1724 41.6433 26.6222 41.6433C26.4071 41.6433 26.2457 41.5896 26.1381 41.3744C24.9547 38.3621 23.7714 35.4037 22.5342 32.3914C22.4804 32.2839 22.4804 32.2301 22.4804 32.1225C24.7396 32.1225 26.9988 32.1225 29.3117 32.1225C28.0208 34.2741 27.698 36.4795 28.3973 38.9538C28.8814 38.7925 29.3118 38.6311 29.7959 38.5235C29.4731 37.3401 29.4193 36.2105 29.6883 35.0272C29.9572 33.8976 30.4951 32.9293 31.2482 32.0687C31.7861 31.5308 31.7861 31.2081 31.2482 30.6701C29.6345 29.0564 28.0746 27.4965 26.4609 25.8828C25.8154 25.1836 25.6002 24.3767 25.8692 23.4623C26.1381 22.6016 26.7836 22.0099 27.698 21.8486C28.5587 21.6872 29.258 21.9561 29.8497 22.5478C31.3558 24.054 32.8619 25.5601 34.368 27.0662C34.4756 27.1738 34.5832 27.3352 34.6908 27.4965C35.0673 27.0662 35.39 26.7435 35.7128 26.3669C35.1749 25.829 34.5832 25.2373 33.9915 24.6457C33.8839 24.5381 33.7763 24.3229 33.7763 24.1615C33.7763 20.2886 33.7763 16.4695 33.7763 12.5967C33.7763 12.5429 33.7763 12.4353 33.7763 12.3815C34.7446 12.3815 35.7128 13.1883 36.1431 14.3717C36.6272 15.7165 37.0575 17.0612 37.4879 18.406C38.2947 20.8266 39.0478 23.2471 39.9084 25.6677C40.3925 26.7435 40.2849 27.7655 40.0698 28.8951ZM27.2139 30.6164C27.3215 30.1322 27.4291 29.7019 27.5367 29.2178C28.0208 29.7019 28.4511 30.186 28.8814 30.6164C28.3973 30.6164 27.8594 30.6164 27.2139 30.6164Z" fill="black"/>
<path d="M11.6763 34.1756C11.3493 33.9084 10.8043 33.9618 10.5318 34.2824L8.29736 37.0076V19.8015C8.29736 19.374 7.91587 19 7.47988 19C7.04389 19 6.6624 19.374 6.6624 19.8015V37.0076L4.42795 34.2824C4.15545 33.9618 3.61046 33.9084 3.28347 34.1756C2.95648 34.4427 2.90198 34.9771 3.17447 35.2977L6.88039 39.7328C6.93489 39.7863 6.93489 39.7863 6.98939 39.8397C7.04389 39.8931 7.15289 39.9466 7.20739 39.9466H7.26189C7.31638 39.9466 7.42538 40 7.47988 40C7.58888 40 7.64338 40 7.69788 39.9466C7.69788 39.9466 7.69788 39.9466 7.75237 39.9466C7.80687 39.9466 7.91587 39.8931 7.97037 39.8397C8.02487 39.7863 8.07937 39.7863 8.07937 39.7328L11.7853 35.2977C12.1123 34.9237 12.0578 34.4427 11.6763 34.1756Z" fill="#FF6854"/>
</svg>
